<mxfile host="app.diagrams.net" modified="2023-10-26T21:44:55.756Z" agent="Mozilla/5.0 (Windows NT 10.0; Win64; x64) AppleWebKit/537.36 (KHTML, like Gecko) Chrome/118.0.0.0 Safari/537.36" etag="IEJR_bfRaX3Zc5aEKcew" version="22.0.8" type="github">
  <diagram name="Сторінка-1" id="TLs1bnMFLokIJI0Ao59b">
    <mxGraphModel dx="756" dy="486" grid="1" gridSize="10" guides="1" tooltips="1" connect="1" arrows="1" fold="1" page="1" pageScale="1" pageWidth="827" pageHeight="1169" math="0" shadow="0">
      <root>
        <mxCell id="0" />
        <mxCell id="1" parent="0" />
        <mxCell id="YQeeu5xgUG6O1fZ1DR1G-2" value="AddressBook" style="swimlane;fontStyle=1;align=center;verticalAlign=top;childLayout=stackLayout;horizontal=1;startSize=26;horizontalStack=0;resizeParent=1;resizeParentMax=0;resizeLast=0;collapsible=1;marginBottom=0;whiteSpace=wrap;html=1;" parent="1" vertex="1">
          <mxGeometry x="80" y="640" width="160" height="328" as="geometry">
            <mxRectangle x="90" y="670" width="100" height="30" as="alternateBounds" />
          </mxGeometry>
        </mxCell>
        <mxCell id="YQeeu5xgUG6O1fZ1DR1G-3" value="+ data: dict&lt;br&gt;- counter: int&lt;br&gt;- settings: Configuration" style="text;strokeColor=none;fillColor=none;align=left;verticalAlign=top;spacingLeft=4;spacingRight=4;overflow=hidden;rotatable=0;points=[[0,0.5],[1,0.5]];portConstraint=eastwest;whiteSpace=wrap;html=1;" parent="YQeeu5xgUG6O1fZ1DR1G-2" vertex="1">
          <mxGeometry y="26" width="160" height="54" as="geometry" />
        </mxCell>
        <mxCell id="YQeeu5xgUG6O1fZ1DR1G-4" value="" style="line;strokeWidth=1;fillColor=none;align=left;verticalAlign=middle;spacingTop=-1;spacingLeft=3;spacingRight=3;rotatable=0;labelPosition=right;points=[];portConstraint=eastwest;strokeColor=inherit;" parent="YQeeu5xgUG6O1fZ1DR1G-2" vertex="1">
          <mxGeometry y="80" width="160" height="8" as="geometry" />
        </mxCell>
        <mxCell id="YQeeu5xgUG6O1fZ1DR1G-5" value="+add_record(user: Record): void" style="text;strokeColor=none;fillColor=none;align=left;verticalAlign=top;spacingLeft=4;spacingRight=4;overflow=hidden;rotatable=0;points=[[0,0.5],[1,0.5]];portConstraint=eastwest;whiteSpace=wrap;html=1;" parent="YQeeu5xgUG6O1fZ1DR1G-2" vertex="1">
          <mxGeometry y="88" width="160" height="40" as="geometry" />
        </mxCell>
        <mxCell id="8fBpfCqB0RzkSUuVWOnT-1" value="+find(name: str): Record" style="text;strokeColor=none;fillColor=none;align=left;verticalAlign=top;spacingLeft=4;spacingRight=4;overflow=hidden;rotatable=0;points=[[0,0.5],[1,0.5]];portConstraint=eastwest;whiteSpace=wrap;html=1;" vertex="1" parent="YQeeu5xgUG6O1fZ1DR1G-2">
          <mxGeometry y="128" width="160" height="40" as="geometry" />
        </mxCell>
        <mxCell id="8fBpfCqB0RzkSUuVWOnT-2" value="+delete(name: str): void" style="text;strokeColor=none;fillColor=none;align=left;verticalAlign=top;spacingLeft=4;spacingRight=4;overflow=hidden;rotatable=0;points=[[0,0.5],[1,0.5]];portConstraint=eastwest;whiteSpace=wrap;html=1;" vertex="1" parent="YQeeu5xgUG6O1fZ1DR1G-2">
          <mxGeometry y="168" width="160" height="40" as="geometry" />
        </mxCell>
        <mxCell id="8fBpfCqB0RzkSUuVWOnT-3" value="+iterator(page_size: int): Iterator" style="text;strokeColor=none;fillColor=none;align=left;verticalAlign=top;spacingLeft=4;spacingRight=4;overflow=hidden;rotatable=0;points=[[0,0.5],[1,0.5]];portConstraint=eastwest;whiteSpace=wrap;html=1;" vertex="1" parent="YQeeu5xgUG6O1fZ1DR1G-2">
          <mxGeometry y="208" width="160" height="40" as="geometry" />
        </mxCell>
        <mxCell id="8fBpfCqB0RzkSUuVWOnT-4" value="+find_birthday_users(days: int): str" style="text;strokeColor=none;fillColor=none;align=left;verticalAlign=top;spacingLeft=4;spacingRight=4;overflow=hidden;rotatable=0;points=[[0,0.5],[1,0.5]];portConstraint=eastwest;whiteSpace=wrap;html=1;" vertex="1" parent="YQeeu5xgUG6O1fZ1DR1G-2">
          <mxGeometry y="248" width="160" height="40" as="geometry" />
        </mxCell>
        <mxCell id="8fBpfCqB0RzkSUuVWOnT-5" value="+find_match(string: str): str" style="text;strokeColor=none;fillColor=none;align=left;verticalAlign=top;spacingLeft=4;spacingRight=4;overflow=hidden;rotatable=0;points=[[0,0.5],[1,0.5]];portConstraint=eastwest;whiteSpace=wrap;html=1;" vertex="1" parent="YQeeu5xgUG6O1fZ1DR1G-2">
          <mxGeometry y="288" width="160" height="40" as="geometry" />
        </mxCell>
        <mxCell id="8fBpfCqB0RzkSUuVWOnT-6" value="Record" style="swimlane;fontStyle=1;align=center;verticalAlign=top;childLayout=stackLayout;horizontal=1;startSize=26;horizontalStack=0;resizeParent=1;resizeParentMax=0;resizeLast=0;collapsible=1;marginBottom=0;whiteSpace=wrap;html=1;" vertex="1" parent="1">
          <mxGeometry x="320" y="640" width="170" height="360" as="geometry" />
        </mxCell>
        <mxCell id="8fBpfCqB0RzkSUuVWOnT-7" value="&lt;div&gt;- name: Name&amp;nbsp; &amp;nbsp; &amp;nbsp; &amp;nbsp; &amp;nbsp; &amp;nbsp; &amp;nbsp; &amp;nbsp; &amp;nbsp; &amp;nbsp; &amp;nbsp;&lt;/div&gt;&lt;div&gt;- birthday: Birthday&amp;nbsp; &amp;nbsp; &amp;nbsp; &amp;nbsp; &amp;nbsp; &amp;nbsp; &amp;nbsp;&lt;/div&gt;&lt;div&gt;- phones: List[Phone]&amp;nbsp; &amp;nbsp; &amp;nbsp; &amp;nbsp; &amp;nbsp;&amp;nbsp;&lt;/div&gt;&lt;div&gt;&lt;span style=&quot;background-color: initial;&quot;&gt;- email: Email&amp;nbsp; &amp;nbsp; &amp;nbsp; &amp;nbsp; &amp;nbsp; &amp;nbsp; &amp;nbsp; &amp;nbsp; &amp;nbsp; &amp;nbsp;&lt;/span&gt;&lt;/div&gt;&lt;div&gt;- address: Address&lt;/div&gt;" style="text;strokeColor=none;fillColor=none;align=left;verticalAlign=top;spacingLeft=4;spacingRight=4;overflow=hidden;rotatable=0;points=[[0,0.5],[1,0.5]];portConstraint=eastwest;whiteSpace=wrap;html=1;" vertex="1" parent="8fBpfCqB0RzkSUuVWOnT-6">
          <mxGeometry y="26" width="170" height="114" as="geometry" />
        </mxCell>
        <mxCell id="8fBpfCqB0RzkSUuVWOnT-8" value="" style="line;strokeWidth=1;fillColor=none;align=left;verticalAlign=middle;spacingTop=-1;spacingLeft=3;spacingRight=3;rotatable=0;labelPosition=right;points=[];portConstraint=eastwest;strokeColor=inherit;" vertex="1" parent="8fBpfCqB0RzkSUuVWOnT-6">
          <mxGeometry y="140" width="170" height="8" as="geometry" />
        </mxCell>
        <mxCell id="8fBpfCqB0RzkSUuVWOnT-9" value="&lt;div&gt;+ add_phone(number: str): str&amp;nbsp; &amp;nbsp;&amp;nbsp;&lt;/div&gt;&lt;div&gt;+ remove_phone(number: str): str&amp;nbsp;&lt;/div&gt;&lt;div&gt;+ edit_phone(old_number: str,&amp;nbsp; &amp;nbsp; &amp;nbsp;&lt;/div&gt;&lt;div&gt;+ new_number: str)&amp;nbsp; &amp;nbsp; &amp;nbsp; &amp;nbsp; &amp;nbsp; &amp;nbsp; &amp;nbsp; &amp;nbsp;&lt;/div&gt;&lt;div&gt;+ add_birthday(birthday: str): str&amp;nbsp;&lt;/div&gt;&lt;div&gt;+ add_email(email: str): str&amp;nbsp; &amp;nbsp; &amp;nbsp;&lt;/div&gt;&lt;div&gt;+ add_address(address: str): str&amp;nbsp;&lt;/div&gt;&lt;div&gt;+ days_to_birthday(): int&amp;nbsp; &amp;nbsp; &amp;nbsp; &amp;nbsp;&lt;/div&gt;&lt;div&gt;+ __str__(): str&amp;nbsp;&lt;/div&gt;" style="text;strokeColor=none;fillColor=none;align=left;verticalAlign=top;spacingLeft=4;spacingRight=4;overflow=hidden;rotatable=0;points=[[0,0.5],[1,0.5]];portConstraint=eastwest;whiteSpace=wrap;html=1;" vertex="1" parent="8fBpfCqB0RzkSUuVWOnT-6">
          <mxGeometry y="148" width="170" height="212" as="geometry" />
        </mxCell>
        <mxCell id="8fBpfCqB0RzkSUuVWOnT-11" value="" style="endArrow=open;endFill=1;endSize=12;html=1;rounded=0;entryX=0.004;entryY=0.03;entryDx=0;entryDy=0;entryPerimeter=0;" edge="1" parent="1" target="8fBpfCqB0RzkSUuVWOnT-6">
          <mxGeometry width="160" relative="1" as="geometry">
            <mxPoint x="240" y="650" as="sourcePoint" />
            <mxPoint x="310" y="650" as="targetPoint" />
          </mxGeometry>
        </mxCell>
      </root>
    </mxGraphModel>
  </diagram>
</mxfile>
